<svg xmlns="http://www.w3.org/2000/svg" xmlns:xlink="http://www.w3.org/1999/xlink" width="691" height="725" viewBox="0 0 691 725">
  <defs>
    <clipPath id="clip-path">
      <rect id="Rectangle_7" data-name="Rectangle 7" width="691" height="725" transform="translate(152.245 1093)" fill="#fff" stroke="#707070" stroke-width="1"/>
    </clipPath>
  </defs>
  <g id="Mask_Group_1" data-name="Mask Group 1" transform="translate(-152.245 -1093)" clip-path="url(#clip-path)">
    <g id="undraw_interview_rmcf" transform="translate(152 1207.587)">
      <path id="Path_1" data-name="Path 1" d="M317.154,47.229c-28.1-10.953-57.791-20.1-88.1-18.951-44.567,1.686-87.35,27.388-108.3,65.128-17.776,31.976-19.969,69.454-27.627,104.939-9.424,43.713-27.506,85.269-46.812,125.9C35.946,346.068,25,368.365,23.3,392.29,20.943,425.507,37.5,458.607,63.47,480.7s60.456,33.753,95.071,36.3c18.42,1.353,37.669.1,54.029-8.123,17.311-8.7,29.928-24.415,47.309-32.989,16.105-7.947,34.946-9.057,53.028-8.025a246.259,246.259,0,0,1,69.229,14.116c25.274,9.1,48.775,22.278,73.96,31.505s53.392,14.377,79.163,6.679c24.228-7.234,43.356-24.8,60.6-42.588a750.576,750.576,0,0,0,77.288-93.705c15.564-22.356,30.049-45.941,36.929-72,13.16-49.816-4.948-106.017-45.109-140.038-33.276-28.185-77.932-40.419-121.645-47.843-39.862-6.77-85.953-7.188-122.646-24.833C385.688,82.309,353.847,61.541,317.154,47.229Z" transform="translate(-23.079 -28.18)" fill="#309317" opacity="0.1"/>
      <path id="Path_2" data-name="Path 2" d="M252.062,247.332v23.742h6.586l-1.275-25.486Z" transform="translate(151.263 157.178)" fill="#aaabb0"/>
      <path id="Path_3" data-name="Path 3" d="M190.232,244.411v23.742h6.593l-1.275-25.486Z" transform="translate(114.159 155.308)" fill="#aaabb0"/>
      <rect id="Rectangle_8" data-name="Rectangle 8" width="8.499" height="42.262" rx="2.658" transform="translate(410.976 360.509)" fill="#aaabb0"/>
      <rect id="Rectangle_9" data-name="Rectangle 9" width="8.499" height="51.626" rx="2.658" transform="translate(301.949 351.138)" fill="#aaabb0"/>
      <path id="Path_4" data-name="Path 4" d="M292.012,94.434s8.5-3.705,9.774,0,1.913,35.727,1.913,35.727h-8.078Z" transform="translate(138.308 13.171)" fill="#aaabb0"/>
      <path id="Path_5" data-name="Path 5" d="M238.222,94.434s-8.505-3.705-9.781,0-1.913,35.727-1.913,35.727h8.078Z" transform="translate(99.011 13.171)" fill="#aaabb0"/>
      <path id="Path_6" data-name="Path 6" d="M212.028,46.477l-1.275,26.578h5.738V45.824Z" transform="translate(126.473 29.322)" fill="#aaabb0"/>
      <path id="Path_7" data-name="Path 7" d="M231.577,133.028l1.7-38.341s-.638-8.5,19.548-5.882,79.278,7.842,79.278,7.842v36.38Z" transform="translate(102.041 10.304)" fill="#33323d"/>
      <path id="Path_8" data-name="Path 8" d="M322.065,239.382l-3.188,58.593s-46.761,26.578-103.506,1.307l5.1-61.645Z" transform="translate(92.316 105.881)" fill="#33323d"/>
      <path id="Path_9" data-name="Path 9" d="M231.21,74.622l1.058,37.9h65.888l-3.826-50.1Z" transform="translate(138.75 39.949)" fill="#444053"/>
      <rect id="Rectangle_10" data-name="Rectangle 10" width="62.063" height="80.596" transform="translate(314.592 320.208)" fill="#4c4981"/>
      <path id="Path_10" data-name="Path 10" d="M244.205,245.6s8.926-7.188,10.412-5.012-5.3,11.547-8.072,10.456S244.205,245.6,244.205,245.6Z" transform="translate(109.605 107.506)" fill="#ffb9b9"/>
      <rect id="Rectangle_11" data-name="Rectangle 11" width="407.399" height="209.12" transform="translate(194.152 141.149)" fill="#504f60"/>
      <path id="Path_11" data-name="Path 11" d="M232.24,93.625s-3.188-30.5,0-34.2,56.745-38.779,106.267,2.392c0,0,4.674.222,3.826,11.109a133.949,133.949,0,0,0,.1,20.7S235.855,101.467,232.24,93.625Z" transform="translate(101.588 -19.348)" fill="#33323d"/>
      <path id="Path_12" data-name="Path 12" d="M232.24,93.625s-3.188-30.5,0-34.2,56.745-38.779,106.267,2.392c0,0,4.674.222,3.826,11.109a133.949,133.949,0,0,0,.1,20.7S235.855,101.467,232.24,93.625Z" transform="translate(101.588 -19.348)" opacity="0.1"/>
      <path id="Path_13" data-name="Path 13" d="M232.24,96.015s-3.188-30.5,0-34.2,56.745-38.779,106.267,2.392c0,0,4.674.222,3.826,11.109a133.948,133.948,0,0,0,.1,20.7S235.855,103.857,232.24,96.015Z" transform="translate(101.588 -17.818)" fill="#33323d"/>
      <path id="Path_14" data-name="Path 14" d="M312.7,67.361s3.4,13.07,2.34,15.246-.867,8.28-.867,8.28.23,3.921-1.473,4.352-3.188.653-1.811,1.96,0,3.268,0,3.268-.746,3.052,0,5.012-4.361,2.777-3.928,5.228,1.862,9.365,0,9.587.638,8.711-1.039,8.711-2.869,15.246-2.869,15.246-11.8-10.234-19.657-7.4c0,0,.638-8.5,3.188-11.547s1.779-10.887,1.779-10.887l12.65-38.994Z" transform="translate(133.136 -3.102)" fill="#4c4981"/>
      <path id="Path_15" data-name="Path 15" d="M269.906,195.3c-2.761,3.13-5.738-13.586-5.738-13.586s-7.862,11.109-12.962,3.705c-3.532-5.13-.746-19.664,1.275-28.1.905-3.751,1.67-6.3,1.67-6.3l11.477-1.961s.038,2.562.293,5.672c.344,4.2,1.09,9.417,2.678,10.665C271.4,167.555,272.673,192.14,269.906,195.3Z" transform="translate(112.806 49.184)" fill="#ae6e79"/>
      <path id="Path_16" data-name="Path 16" d="M270.54,60.309s-19.982-.216-24.866,10.672-5.1,14.6-7.013,16.337,20.824,10.894,20.824,10.894l1.065,37.465a11.951,11.951,0,0,1,11.687-2.536c7.224,2.1,16.367,0,16.367,0s-.427-.791,5.528,0S319,123.7,319,123.7s.312-16.39-.108-19.879,13.491-29.133,13.491-29.133,10.839-10.672-.421-14.377c0,0-3.985-6.156-14.237-6.1S270.54,60.309,270.54,60.309Z" transform="translate(106.223 -11.519)" opacity="0.1"/>
      <path id="Path_17" data-name="Path 17" d="M270.54,59.91s-19.982-.216-24.866,10.672-5.1,14.6-7.013,16.337,20.824,10.894,20.824,10.894l1.065,37.465a11.951,11.951,0,0,1,11.687-2.536c7.224,2.1,16.367,0,16.367,0s-.427-.791,5.528,0S319,123.3,319,123.3s7.434-12.416,7.014-15.9,14.875-29.845,14.875-29.845,2.34-13.939-8.926-17.644c0,0-3.985-6.156-14.237-6.1S270.54,59.91,270.54,59.91Z" transform="translate(106.223 -11.774)" fill="#4c4981"/>
      <path id="Path_18" data-name="Path 18" d="M264.841,154.7c-4.38-1.4-11.253,1.686-13.44,2.614.905-3.751,1.67-6.3,1.67-6.3l11.477-1.961S264.567,151.62,264.841,154.7Z" transform="translate(113.937 49.187)" opacity="0.1"/>
      <path id="Path_19" data-name="Path 19" d="M244.989,74H238.83s-1.275,13.292,0,17.213,1.913,3.352,1.486,6.254,2.978,7.345,2.978,7.345.421,10.953,2.55,15.03S243.5,142.2,243.5,142.2a26.4,26.4,0,0,0,5.311,8.5c3.615,3.7,5.528,17.422,4.463,22.65s2.977,7.189,2.977,7.189,1.7,24.4,2.34,24.4,12.962-6.535,16.788-.876l-2.978-22.435.217-43.347s-4.042-5.45-1.913-10.24-1.7-16.122-1.7-16.122l-5.528-25.264Z" transform="translate(106.054 1.147)" fill="#4c4981"/>
      <path id="Path_20" data-name="Path 20" d="M223.544,284.331s-8.926-1.961-9.137,0-10.629,22,2.34,27.885,47.6,18.514,103.927,2.176c0,0,3.609,1.307,2.761-6.751s-.848-16.991-.848-16.991-8.505-2.4-14.881-1.523S245.86,301.544,223.544,284.331Z" transform="translate(89.243 135.209)" fill="#33323d"/>
      <path id="Path_21" data-name="Path 21" d="M223.544,284.331s-8.926-1.961-9.137,0-10.629,22,2.34,27.885,47.6,18.514,103.927,2.176c0,0,3.609,1.307,2.761-6.751s-.848-16.991-.848-16.991-8.505-2.4-14.881-1.523S245.86,301.544,223.544,284.331Z" transform="translate(89.243 135.209)" opacity="0.1"/>
      <path id="Path_22" data-name="Path 22" d="M223.544,282.737s-8.926-1.96-9.137,0-10.629,22,2.34,27.885,47.6,18.514,103.927,2.176c0,0,3.609,1.307,2.761-6.751s-.848-16.991-.848-16.991-8.505-2.4-14.881-1.523S245.86,299.95,223.544,282.737Z" transform="translate(89.243 134.189)" fill="#33323d"/>
      <path id="Path_23" data-name="Path 23" d="M251.841,79.283c-.548,3.2-1.792,6.267-1.983,9.5s1.026,6.914,3.94,8.182a13.1,13.1,0,0,1,2.353.98,5.346,5.346,0,0,1,1.817,3.614,20.219,20.219,0,0,1,.223,5.372c-.159,1.8-.535,3.745.332,5.32,1.524,2.79,5.5,2.379,8.518,1.595L266,122.1a2.117,2.117,0,0,0,.332,1.836,1.97,1.97,0,0,0,1.53.34,15.934,15.934,0,0,0,7.581-1.96c2.251-1.418,3.928-4.058,3.5-6.718-.5-3.085-3.609-5.535-3.188-8.633.325-2.4,2.614-3.921,4.119-5.764a11.312,11.312,0,0,0,.733-12.312A13.628,13.628,0,0,0,270.1,82.276c-2.353-.242-4.8.052-7.014-.784a5.4,5.4,0,0,1-3.252-3.516" transform="translate(113 3.692)" fill="#444053"/>
      <path id="Path_24" data-name="Path 24" d="M204.748,265.056l2.225-4.967s12.012-11.469,14.773-12.273,14.027-4.307,15.729-4.307,32.734-1.745,32.734-1.745l3.609,8.718-38.944,8.763-13.128,9.8Z" transform="translate(85.941 108.523)" fill="#767d9f"/>
      <path id="Path_25" data-name="Path 25" d="M271.974,181.225l-2.034,16.043-.784,6.176-9.137,1.307s-.988-2.17-2.385-5.5c-4.24-10.116-12.223-30.976-7.594-34.577,6.153-4.8,7.651,11.109,7.651,11.109l7.013-3.49Z" transform="translate(112.281 58.603)" fill="#ffb9b9"/>
      <rect id="Rectangle_12" data-name="Rectangle 12" width="46.142" height="71.447" transform="translate(336.589 269.673)" fill="#fff"/>
      <rect id="Rectangle_13" data-name="Rectangle 13" width="46.142" height="71.447" transform="translate(336.589 269.673)" opacity="0.1"/>
      <path id="Path_145" data-name="Path 145" d="M.23.16,46.4.327l.252,71.41L.481,71.57Z" transform="translate(357.62 266.435) rotate(8.41)" fill="#fff"/>
      <path id="Path_146" data-name="Path 146" d="M.118.082,23.881.168l.13,36.753L.248,36.836Z" transform="translate(362.015 273.269) rotate(8.41)" fill="#309317"/>
      <path id="Path_147" data-name="Path 147" d="M.026.1l28.79.1.028,7.982-28.79-.1Z" transform="translate(354.343 319.995) rotate(8.41)" fill="#309317"/>
      <ellipse id="Ellipse_1" data-name="Ellipse 1" cx="26.67" cy="27.336" rx="26.67" ry="27.336" transform="translate(368.156 34.74)" opacity="0.1"/>
      <ellipse id="Ellipse_2" data-name="Ellipse 2" cx="26.67" cy="27.336" rx="26.67" ry="27.336" transform="translate(368.156 34.086)" fill="#ae6e79"/>
      <path id="Path_26" data-name="Path 26" d="M261.774,104.3a3.182,3.182,0,0,1,.185-2.111c1.014-2.163,3.9-2.353,6.242-2.241,5.5.261,11.54.294,15.844-3.268,1.785-1.464,3.781-5.143,6.376-4.444,2.308.621,3.271,3.829,5.674,4.542,1.741.516,3.545-.307,5.318-.654,2.55-.516,5.164-.085,7.753-.065s5.4-.484,7.166-2.424c2.385-2.614,2-6.7,1.785-10.28a56.7,56.7,0,0,1,.912-13.815c.867-4.522,2.2-9.58-.236-13.456-2.321-3.692-7.128-4.705-10.412-7.535-3.073-2.614-4.7-6.8-7.944-9.227-4.087-3.052-9.64-2.614-14.665-2.085l-10.9,1.189c-2.812.307-5.738.653-8.053,2.372-4.176,3.1-4.75,9.535-8.7,12.926-1.76,1.5-4.01,2.248-6.019,3.372s-3.947,2.9-4.176,5.228c-.191,1.961.842,3.771,1.345,5.659,1.192,4.509-.669,9.149-1.862,13.691s-1.422,10.057,2.04,13.07c.7.614,1.517,1.085,2.2,1.725,2.34,2.189,2.659,5.881,2.117,9.071" transform="translate(111.062 -22.622)" fill="#444053"/>
      <ellipse id="Ellipse_3" data-name="Ellipse 3" cx="0.638" cy="1.634" rx="0.638" ry="1.634" transform="translate(396.363 92.3)" fill="#444053"/>
      <ellipse id="Ellipse_4" data-name="Ellipse 4" cx="0.638" cy="1.634" rx="0.638" ry="1.634" transform="translate(396.363 99.11)" fill="#444053"/>
      <path id="Path_27" data-name="Path 27" d="M264.677,183.195c.682-.8,1.135-2.869,1.4-5.594l-7.6-9.711S261.693,186.717,264.677,183.195Z" transform="translate(118.182 61.24)" fill="#ae6e79"/>
      <path id="Path_28" data-name="Path 28" d="M307.172,292.139S294.7,311.9,255.738,309.784c-36.706-1.961-54.622-20.474-53.768-27.009s-2.34-22.441,5.522-27.016c4.559-2.647,10.558-1.078,14.792.712a8.2,8.2,0,0,0,8.78-1.614c3.87-3.575,11.088-7.6,22.481-4.431a7.908,7.908,0,0,0,4.463-.085c4.744-1.484,16.035-4.058,24.228,1.66a8.119,8.119,0,0,0,8.875.346l.115-.072c3.826-2.4,21.678,20.258,21.678,20.258S313.758,289.963,307.172,292.139Z" transform="translate(84.256 112.808)" opacity="0.1"/>
      <path id="Path_29" data-name="Path 29" d="M307.172,292.538S294.7,312.3,255.738,310.182c-36.706-1.96-54.622-20.474-53.768-27.009s-2.34-22.441,5.522-27.016c4.559-2.647,10.558-1.078,14.792.712a8.2,8.2,0,0,0,8.78-1.614c3.87-3.575,11.088-7.6,22.481-4.431a7.908,7.908,0,0,0,4.463-.085c4.744-1.483,16.035-4.058,24.228,1.66a8.119,8.119,0,0,0,8.875.346l.115-.072c3.826-2.4,21.678,20.258,21.678,20.258S313.758,290.362,307.172,292.538Z" transform="translate(84.256 113.063)" fill="#767d9f"/>
      <ellipse id="Ellipse_5" data-name="Ellipse 5" cx="25.401" cy="26.035" rx="25.401" ry="26.035" transform="translate(314.592 361.267)" opacity="0.1"/>
      <ellipse id="Ellipse_6" data-name="Ellipse 6" cx="25.401" cy="26.035" rx="25.401" ry="26.035" transform="translate(314.592 361.921)" fill="#ffb9b9"/>
      <path id="Path_30" data-name="Path 30" d="M238.868,251.251c-2.665.738-5.292,2.15-6.593,4.47-.784,1.4-1.058,3.078-2.193,4.241-1.607,1.653-4.316,1.686-6.491,2.614s-3.609,4.2-1.479,5.228c-2.219.118-3.864,2.215-4.138,4.3s.5,4.163,1.243,6.149c2.436,6.43,5.056,13.142,10.425,17.716,8.748,7.463,21.933,7.117,33.684,6.326a5.4,5.4,0,0,0,2.761-.653c1.275-.863,1.435-2.516,1.645-3.967.886-6.2,4.163-11.822,6.306-17.736s3.022-12.861-.587-18.1C268.14,254.08,247.807,248.767,238.868,251.251Z" transform="translate(93.844 114.199)" fill="#b96b6b"/>
      <path id="Path_31" data-name="Path 31" d="M266.567,184.335l-.784,6.176-9.137,1.307s-.988-2.17-2.385-5.5l12.159-2.339Z" transform="translate(115.654 71.536)" opacity="0.1"/>
      <path id="Path_32" data-name="Path 32" d="M276.8,320.524l5.317-6.319-1.065-34.851a57.856,57.856,0,0,0,1.065-7.626c.21-3.705-2.659-11.979-2.659-11.979a26.35,26.35,0,0,1,1.8-4.8c1.275-2.614-1.8-8.5-1.8-8.5s-4.578-15.246-2.665-22.872-.465-11.979-.465-11.979-1.868-8.5-1.658-11.979-4.253-6.757-4.253-6.757l-3.4-8.5-13.6,2.614V216.4s.848,28.1,0,33.551a20.351,20.351,0,0,0,1.7,10.672s-1.486,8.058-.21,11.109,3.826,10.456,3.826,10.456a17.4,17.4,0,0,0,.427,7.947c1.275,3.816,0,5.993,0,5.993Z" transform="translate(115.049 71.791)" fill="#767d9f"/>
      <g id="Group_1" data-name="Group 1" transform="translate(357.695 37.818)" opacity="0.1">
        <path id="Path_33" data-name="Path 33" d="M292.246,58.192a56.667,56.667,0,0,0-.963,11.613,56.918,56.918,0,0,1,.988-9.646,38.2,38.2,0,0,0,1.122-8.92,55.48,55.48,0,0,1-1.148,6.953Z" transform="translate(-219.831 -51.239)"/>
        <path id="Path_34" data-name="Path 34" d="M251.653,75.153c-.682-.654-1.5-1.111-2.2-1.732a9.073,9.073,0,0,1-2.8-6.535c-.185,3.268.465,6.43,2.8,8.5.7.621,1.517,1.091,2.2,1.732a8.082,8.082,0,0,1,2.308,5.457C254.146,79.826,253.6,76.97,251.653,75.153Z" transform="translate(-246.624 -41.224)"/>
        <path id="Path_35" data-name="Path 35" d="M249.138,60.28a12.614,12.614,0,0,0-.344-4.111c-.37-1.4-1.033-2.764-1.275-4.169a4.446,4.446,0,0,1-.07.471c-.185,1.961.848,3.771,1.345,5.659A11.367,11.367,0,0,1,249.138,60.28Z" transform="translate(-246.143 -50.752)"/>
        <path id="Path_36" data-name="Path 36" d="M313.653,72.414c-1.766,1.961-4.578,2.444-7.166,2.425s-5.209-.451-7.753.072c-1.773.366-3.577,1.183-5.317.653-2.4-.712-3.367-3.921-5.668-4.542-2.62-.706-4.616,2.973-6.376,4.437-4.3,3.529-10.342,3.5-15.844,3.268-2.34-.111-5.228.078-6.236,2.248a3.1,3.1,0,0,0-.185,2.111l-7.791,1.255a15.867,15.867,0,0,1-.21,1.961l8-1.307a3.1,3.1,0,0,1,.185-2.111c1.007-2.17,3.9-2.359,6.236-2.248,5.5.261,11.54.294,15.844-3.267,1.785-1.464,3.781-5.143,6.376-4.437,2.3.614,3.264,3.829,5.668,4.542,1.741.51,3.545-.307,5.317-.654,2.55-.523,5.164-.091,7.753-.072s5.4-.484,7.166-2.424,2.021-4.836,1.913-7.659A8.663,8.663,0,0,1,313.653,72.414Z" transform="translate(-243.935 -41.366)"/>
      </g>
      <g id="Group_2" data-name="Group 2" transform="translate(362.959 94.287)" opacity="0.1">
        <path id="Path_37" data-name="Path 37" d="M255.346,90.951a12.719,12.719,0,0,0-2.353-.98,6.172,6.172,0,0,1-3.08-3.228,6.979,6.979,0,0,0,3.717,5.189,12.72,12.72,0,0,1,2.353.98,3.6,3.6,0,0,1,1.129,1.353A5.077,5.077,0,0,0,255.346,90.951Z" transform="translate(-249.914 -84.984)"/>
        <path id="Path_38" data-name="Path 38" d="M263.262,99.546c-2.939.765-6.778,1.163-8.391-1.392a4.572,4.572,0,0,0,.51,1.758c1.377,2.516,4.744,2.431,7.606,1.81Z" transform="translate(-246.94 -77.68)"/>
        <path id="Path_39" data-name="Path 39" d="M272.23,100.095c.408,2.653-1.275,5.3-3.507,6.692a16.337,16.337,0,0,1-7.581,1.961,2.543,2.543,0,0,1-1.237-.144,1.585,1.585,0,0,0,.266,1.68,1.493,1.493,0,0,0,1.608.424,15.934,15.934,0,0,0,7.581-1.96c2.251-1.418,3.934-4.058,3.5-6.718a7.54,7.54,0,0,0-.631-1.934Z" transform="translate(-243.997 -76.438)"/>
        <path id="Path_40" data-name="Path 40" d="M271.6,85.67a10.966,10.966,0,0,1-1.913,9.247c-1.5,1.869-3.794,3.366-4.119,5.764a5.557,5.557,0,0,0,.638,3.183,4.351,4.351,0,0,1,0-1.222c.325-2.4,2.614-3.921,4.119-5.764A11.22,11.22,0,0,0,271.6,85.67Z" transform="translate(-240.536 -85.67)"/>
      </g>
      <g id="Group_3" data-name="Group 3" transform="translate(311.76 364.544)" opacity="0.1">
        <path id="Path_41" data-name="Path 41" d="M222.411,263.695c2.168-.921,4.878-.954,6.491-2.614,1.135-1.163,1.409-2.843,2.193-4.235,1.275-2.326,3.921-3.732,6.586-4.47,8.926-2.483,29.278,2.823,34.583,10.515a14.528,14.528,0,0,1,2.436,7.894,15.033,15.033,0,0,0-2.429-9.195c-5.3-7.692-25.637-13-34.583-10.515-2.665.738-5.292,2.143-6.586,4.47-.784,1.392-1.058,3.071-2.193,4.235-1.613,1.653-4.323,1.686-6.491,2.614-1.651.7-2.876,2.764-2.429,4.15a4.464,4.464,0,0,1,2.423-2.849Z" transform="translate(-216.729 -250.458)"/>
        <path id="Path_42" data-name="Path 42" d="M217.988,266.433c.268-2.091,1.913-4.182,4.138-4.3a1.724,1.724,0,0,1-.976-1.117,5.055,5.055,0,0,0-3.188,4.11,7.076,7.076,0,0,0,0,1.6A1.147,1.147,0,0,0,217.988,266.433Z" transform="translate(-217.917 -243.701)"/>
      </g>
      <rect id="Rectangle_17" data-name="Rectangle 17" width="58.02" height="77.551" transform="translate(388.871 150.455)" fill="#fff"/>
      <rect id="Rectangle_18" data-name="Rectangle 18" width="58.02" height="77.551" transform="translate(388.871 150.455)" opacity="0.1"/>
      <path id="Path_148" data-name="Path 148" d="M0,0,58.062-.242l-.315,77.5L-.315,77.5Z" transform="matrix(0.986, -0.17, 0.17, 0.986, 411.88, 165.087)" fill="#fff"/>
      <path id="Path_149" data-name="Path 149" d="M0,0,13.641-.057,13.567,18.15l-13.641.057Z" transform="matrix(0.986, -0.17, 0.17, 0.986, 425.738, 217.189)" fill="#309317"/>
      <path id="Path_150" data-name="Path 150" d="M0,0,13.641-.057,13.567,18.15l-13.641.057Z" transform="matrix(0.986, -0.17, 0.17, 0.986, 444.329, 213.908)" fill="#309317"/>
      <path id="Path_151" data-name="Path 151" d="M0,0,47.837-.2,47.763,18.09l-47.837.2Z" transform="translate(423.785 193.523) rotate(-9.744)" fill="#309317"/>
      <path id="Path_152" data-name="Path 152" d="M0,0,47.837-.2l-.017,4.08-47.837.2Z" transform="translate(419.858 171.995) rotate(-9.744)" fill="#309317"/>
      <path id="Path_153" data-name="Path 153" d="M0,0,47.837-.2l-.017,4.08-47.837.2Z" transform="translate(421.403 179.398) rotate(-9.744)" fill="#309317"/>
      <path id="Path_43" data-name="Path 43" d="M292.889,107.072s-26.67,27.447-13.281,34.42,22.105-23.2,22.105-23.2l2.117-6.862Z" transform="translate(128.608 22.314)" fill="#ae6e79"/>
      <path id="Path_44" data-name="Path 44" d="M286.275,107.134l-3.3,7.463s16.258,2.34,19.657,7.378l-2.015-13.168-2.391-5.62Z" transform="translate(132.887 19.828)" opacity="0.1"/>
      <path id="Path_45" data-name="Path 45" d="M286.674,106.736l-3.3,7.463s16.258,2.339,19.657,7.378l-2.015-13.168-2.391-5.62Z" transform="translate(133.127 19.573)" fill="#4c4981"/>
      <path id="Path_46" data-name="Path 46" d="M324,160.686l-.351.248.485.222.523-.046.064-.373Z" transform="translate(194.221 102.838)" fill="#464a5f"/>
      <path id="Path_47" data-name="Path 47" d="M324,160.686l-.351.248.485.222.523-.046.064-.373Z" transform="translate(194.221 102.838)" opacity="0.1"/>
      <path id="Path_48" data-name="Path 48" d="M324.1,160.864l-.357.235-.281-.353.172-.288.159-.052Z" transform="translate(194.114 102.659)" fill="#9c9ca1"/>
      <path id="Path_49" data-name="Path 49" d="M324.1,160.864l-.357.235-.281-.353.172-.288.159-.052Z" transform="translate(194.114 102.659)" opacity="0.1"/>
      <path id="Path_50" data-name="Path 50" d="M419.906,176.942,393.8,138.3a3.1,3.1,0,0,0-2-1.327,3.045,3.045,0,0,0-2.327.511l-58.186,40.935a3.246,3.246,0,0,0-.81,4.437l26.033,39.132Z" transform="translate(161.07 41.418)" fill="#9c9ca1"/>
      <path id="Path_51" data-name="Path 51" d="M419.906,176.942,393.8,138.3a3.1,3.1,0,0,0-2-1.327,3.045,3.045,0,0,0-2.327.511l-58.186,40.935a3.246,3.246,0,0,0-.81,4.437l26.033,39.132Z" transform="translate(161.07 41.418)" opacity="0.1"/>
      <path id="Path_52" data-name="Path 52" d="M420.306,177l-26.1-38.641a3.064,3.064,0,0,0-4.329-.817L331.694,178.5a3.252,3.252,0,0,0-.816,4.437l26.033,39.151Z" transform="translate(161.308 41.454)" fill="#9c9ca1"/>
      <path id="Path_53" data-name="Path 53" d="M432.108,168.822l-21.678-7.136-63.4,45.046,22.022,7.385a3.267,3.267,0,0,0,2.952-.457l60.284-43.628a.659.659,0,0,0,.318-.668A.647.647,0,0,0,432.108,168.822Z" transform="translate(171.324 57.269)" fill="#464a5f"/>
      <path id="Path_54" data-name="Path 54" d="M432.108,168.822l-21.678-7.136-63.4,45.046,22.022,7.385a3.267,3.267,0,0,0,2.952-.457l60.284-43.628a.659.659,0,0,0,.318-.668A.647.647,0,0,0,432.108,168.822Z" transform="translate(171.324 57.269)" opacity="0.1"/>
      <path id="Path_55" data-name="Path 55" d="M432.024,168.55l-21.678-7.143-63.4,45.046,22.022,7.371a3.242,3.242,0,0,0,2.952-.451L432.2,169.745a.659.659,0,0,0,.3-.659.648.648,0,0,0-.481-.537Z" transform="translate(171.274 57.09)" fill="#464a5f"/>
      <g id="Group_4" data-name="Group 4" transform="translate(508.537 200.539)" opacity="0.1">
        <path id="Path_56" data-name="Path 56" d="M382.084,161.351l-1.6-2.353a.628.628,0,0,0-.867-.163l-2.378,1.627a.664.664,0,0,0-.172.882l1.473,2.32a.628.628,0,0,0,.861.189l2.506-1.614A.664.664,0,0,0,382.084,161.351Z" transform="translate(-319.247 -145.164)"/>
        <path id="Path_57" data-name="Path 57" d="M379.415,163.2l-1.607-2.346a.628.628,0,0,0-.867-.163l-2.372,1.64a.664.664,0,0,0-.179.882l1.473,2.32a.628.628,0,0,0,.861.2l2.512-1.614a.654.654,0,0,0,.277-.419A.667.667,0,0,0,379.415,163.2Z" transform="translate(-320.851 -143.978)"/>
        <path id="Path_58" data-name="Path 58" d="M376.612,165.138l-1.607-2.346a.628.628,0,0,0-.867-.163l-2.378,1.64a.664.664,0,0,0-.172.889l1.473,2.32a.628.628,0,0,0,.861.189l2.506-1.614a.653.653,0,0,0,.28-.418.667.667,0,0,0-.1-.5Z" transform="translate(-322.536 -142.736)"/>
        <path id="Path_59" data-name="Path 59" d="M373.768,167.108l-1.607-2.353a.628.628,0,0,0-.861-.163l-2.378,1.647a.664.664,0,0,0-.172.882l1.473,2.32a.628.628,0,0,0,.854.2l2.512-1.621a.654.654,0,0,0,.273-.416A.667.667,0,0,0,373.768,167.108Z" transform="translate(-324.237 -141.477)"/>
        <path id="Path_60" data-name="Path 60" d="M370.932,169.071l-1.607-2.346a.628.628,0,0,0-.867-.163l-2.372,1.64a.664.664,0,0,0-.179.882l1.473,2.32a.628.628,0,0,0,.861.2l2.512-1.621a.654.654,0,0,0,.273-.416A.667.667,0,0,0,370.932,169.071Z" transform="translate(-325.942 -140.219)"/>
        <path id="Path_61" data-name="Path 61" d="M368.342,171.381l-2-2.915a.286.286,0,0,0-.185-.125.281.281,0,0,0-.217.047l-2.92,2.019a.294.294,0,0,0-.126.188.3.3,0,0,0,.043.224l1.83,2.882a.289.289,0,0,0,.4.091l3.086-1.961a.3.3,0,0,0,.143-.206.306.306,0,0,0-.061-.245Z" transform="translate(-327.693 -139.014)"/>
        <path id="Path_62" data-name="Path 62" d="M365.51,173.346l-2.008-2.915a.293.293,0,0,0-.188-.126.287.287,0,0,0-.22.048l-2.92,2.019a.306.306,0,0,0-.077.412l1.83,2.882a.28.28,0,0,0,.181.136.275.275,0,0,0,.22-.044l3.08-1.96a.293.293,0,0,0,.158-.2.3.3,0,0,0-.056-.251Z" transform="translate(-329.401 -137.756)"/>
        <path id="Path_63" data-name="Path 63" d="M362.99,175.074l-2-2.888a.289.289,0,0,0-.4-.072l-2.92,2.013a.312.312,0,0,0-.083.418l1.83,2.882a.3.3,0,0,0,.4.091l3.086-1.96a.3.3,0,0,0,.164-.22.306.306,0,0,0-.081-.264Z" transform="translate(-330.904 -136.629)"/>
        <path id="Path_64" data-name="Path 64" d="M360.178,177.029l-2-2.915a.289.289,0,0,0-.4-.072l-2.92,2.013a.3.3,0,0,0-.126.191.307.307,0,0,0,.043.227l1.83,2.882a.3.3,0,0,0,.4.092l3.086-1.961a.307.307,0,0,0,.144-.209A.313.313,0,0,0,360.178,177.029Z" transform="translate(-332.593 -135.394)"/>
        <path id="Path_65" data-name="Path 65" d="M357.452,178.9l-2-2.915a.286.286,0,0,0-.185-.125.281.281,0,0,0-.217.047l-2.92,2.019a.3.3,0,0,0-.126.188.3.3,0,0,0,.043.224l1.83,2.882a.289.289,0,0,0,.4.092l3.086-1.961a.3.3,0,0,0,.143-.206A.306.306,0,0,0,357.452,178.9Z" transform="translate(-334.228 -134.199)"/>
        <path id="Path_66" data-name="Path 66" d="M354.719,180.809l-1.976-2.921a.289.289,0,0,0-.4-.072l-2.92,2.013a.3.3,0,0,0-.126.191.307.307,0,0,0,.044.227l1.83,2.882a.3.3,0,0,0,.4.091l3.086-1.96a.3.3,0,0,0,.133-.21.306.306,0,0,0-.069-.24Z" transform="translate(-335.857 -132.979)"/>
        <path id="Path_67" data-name="Path 67" d="M352,182.694l-2-2.915a.286.286,0,0,0-.185-.125.281.281,0,0,0-.217.047l-2.92,2.006a.294.294,0,0,0-.126.188.3.3,0,0,0,.043.224L348.43,185a.289.289,0,0,0,.4.091l3.086-1.96a.3.3,0,0,0,.136-.2A.306.306,0,0,0,352,182.694Z" transform="translate(-337.5 -131.773)"/>
        <path id="Path_68" data-name="Path 68" d="M380.285,158.757l-1.607-2.353a.628.628,0,0,0-.867-.163l-2.353,1.647a.664.664,0,0,0-.179.882l1.473,2.32a.628.628,0,0,0,.861.189l2.512-1.614a.664.664,0,0,0,.159-.908Z" transform="translate(-320.317 -146.824)"/>
        <path id="Path_69" data-name="Path 69" d="M376.367,153.091l-1.607-2.366a.628.628,0,0,0-.861-.163l-2.378,1.64a.664.664,0,0,0-.179.882l1.473,2.32a.628.628,0,0,0,.861.2l2.512-1.614A.664.664,0,0,0,376.367,153.091Z" transform="translate(-322.68 -150.457)"/>
        <path id="Path_70" data-name="Path 70" d="M377.617,160.6l-1.607-2.346a.628.628,0,0,0-.861-.163l-2.378,1.64a.664.664,0,0,0-.172.882l1.466,2.32a.628.628,0,0,0,.861.2l2.512-1.614a.654.654,0,0,0,.277-.419A.667.667,0,0,0,377.617,160.6Z" transform="translate(-321.927 -145.637)"/>
        <path id="Path_71" data-name="Path 71" d="M374.814,162.544l-1.607-2.346a.628.628,0,0,0-.867-.163l-2.372,1.621a.664.664,0,0,0-.178.889l1.473,2.32a.628.628,0,0,0,.861.19l2.512-1.614A.664.664,0,0,0,374.814,162.544Z" transform="translate(-323.614 -144.396)"/>
        <path id="Path_72" data-name="Path 72" d="M371.97,164.515l-1.6-2.353A.628.628,0,0,0,369.5,162l-2.378,1.666a.664.664,0,0,0-.172.882l1.473,2.32a.628.628,0,0,0,.861.189l2.506-1.614a.654.654,0,0,0,.283-.425.666.666,0,0,0-.1-.5Z" transform="translate(-325.316 -143.139)"/>
        <path id="Path_73" data-name="Path 73" d="M373.757,155.023l-1.607-2.346a.628.628,0,0,0-.861-.163l-2.378,1.64a.664.664,0,0,0-.179.882l1.473,2.32a.628.628,0,0,0,.861.2l2.512-1.614a.654.654,0,0,0,.277-.419A.667.667,0,0,0,373.757,155.023Z" transform="translate(-324.246 -149.207)"/>
        <path id="Path_74" data-name="Path 74" d="M370.952,156.972l-1.607-2.353a.628.628,0,0,0-.867-.163l-2.372,1.621a.664.664,0,0,0-.179.882l1.473,2.32a.628.628,0,0,0,.861.189l2.512-1.614A.664.664,0,0,0,370.952,156.972Z" transform="translate(-325.93 -147.966)"/>
        <path id="Path_75" data-name="Path 75" d="M368.109,158.934l-1.607-2.346a.628.628,0,0,0-.861-.17l-2.378,1.666a.664.664,0,0,0-.172.882l1.473,2.32a.628.628,0,0,0,.861.2l2.506-1.621a.654.654,0,0,0,.283-.425A.667.667,0,0,0,368.109,158.934Z" transform="translate(-327.633 -146.707)"/>
        <path id="Path_76" data-name="Path 76" d="M369.126,166.477l-1.607-2.346a.628.628,0,0,0-.861-.17l-2.359,1.647a.664.664,0,0,0-.172.882l1.447,2.32a.628.628,0,0,0,.854.2l2.512-1.621a.654.654,0,0,0,.277-.415.667.667,0,0,0-.092-.494Z" transform="translate(-327.011 -141.879)"/>
        <path id="Path_77" data-name="Path 77" d="M366.3,168.441l-1.607-2.346a.628.628,0,0,0-.867-.163l-2.372,1.64a.664.664,0,0,0-.179.882l1.473,2.32a.628.628,0,0,0,.861.2l2.512-1.614a.654.654,0,0,0,.277-.419A.667.667,0,0,0,366.3,168.441Z" transform="translate(-328.722 -140.621)"/>
        <path id="Path_78" data-name="Path 78" d="M363.708,170.752l-2-2.915a.286.286,0,0,0-.185-.125.282.282,0,0,0-.217.047l-2.92,2.019a.294.294,0,0,0-.126.188.3.3,0,0,0,.043.224l1.83,2.882a.287.287,0,0,0,.182.133.281.281,0,0,0,.22-.041l3.086-1.961a.3.3,0,0,0,.143-.206.306.306,0,0,0-.061-.245Z" transform="translate(-330.474 -139.417)"/>
        <path id="Path_79" data-name="Path 79" d="M361.19,172.493l-2-2.921a.289.289,0,0,0-.4-.072l-2.914,2.013a.312.312,0,0,0-.083.418l1.83,2.882a.3.3,0,0,0,.4.091l3.086-1.96a.287.287,0,0,0,.147-.206.292.292,0,0,0-.071-.245Z" transform="translate(-331.98 -138.302)"/>
        <path id="Path_80" data-name="Path 80" d="M358.38,174.435l-2-2.915a.289.289,0,0,0-.4-.072l-2.92,2.013a.294.294,0,0,0-.126.188.3.3,0,0,0,.043.224l1.83,2.888a.3.3,0,0,0,.4.092l3.086-1.96a.307.307,0,0,0,.144-.209.313.313,0,0,0-.061-.248Z" transform="translate(-333.671 -137.055)"/>
        <path id="Path_81" data-name="Path 81" d="M355.655,176.326l-2-2.915a.287.287,0,0,0-.185-.125.281.281,0,0,0-.217.047l-2.92,1.993a.294.294,0,0,0-.126.188.3.3,0,0,0,.043.224l1.83,2.882a.289.289,0,0,0,.4.092l3.086-1.961a.3.3,0,0,0,.13-.194A.306.306,0,0,0,355.655,176.326Z" transform="translate(-335.307 -135.849)"/>
        <path id="Path_82" data-name="Path 82" d="M372.943,159.845l-1.607-2.346a.628.628,0,0,0-.861-.163l-2.378,1.647a.664.664,0,0,0-.172.882l1.473,2.32a.628.628,0,0,0,.854.189l2.512-1.614a.655.655,0,0,0,.277-.419A.667.667,0,0,0,372.943,159.845Z" transform="translate(-324.732 -146.121)"/>
        <path id="Path_83" data-name="Path 83" d="M370.1,161.817l-1.607-2.353a.628.628,0,0,0-.867-.163l-2.372,1.647a.664.664,0,0,0-.178.882l1.473,2.32a.628.628,0,0,0,.861.2l2.512-1.621a.654.654,0,0,0,.273-.416.667.667,0,0,0-.095-.492Z" transform="translate(-326.439 -144.865)"/>
        <path id="Path_84" data-name="Path 84" d="M367.271,163.779l-1.607-2.346a.628.628,0,0,0-.867-.163l-2.378,1.64a.664.664,0,0,0-.172.882l1.473,2.32a.628.628,0,0,0,.861.2l2.506-1.621a.654.654,0,0,0,.277-.415A.667.667,0,0,0,367.271,163.779Z" transform="translate(-328.14 -143.605)"/>
        <path id="Path_85" data-name="Path 85" d="M364.428,165.742l-1.607-2.346a.628.628,0,0,0-.861-.163l-2.378,1.64a.664.664,0,0,0-.172.882l1.473,2.346a.628.628,0,0,0,.854.2l2.512-1.614a.654.654,0,0,0,.29-.431A.667.667,0,0,0,364.428,165.742Z" transform="translate(-329.842 -142.347)"/>
        <path id="Path_86" data-name="Path 86" d="M361.858,168.054l-2-2.915a.287.287,0,0,0-.185-.125.281.281,0,0,0-.217.047l-2.92,2.019a.305.305,0,0,0-.083.412l1.83,2.888a.287.287,0,0,0,.183.129.281.281,0,0,0,.218-.044l3.086-1.961a.3.3,0,0,0,.143-.206A.306.306,0,0,0,361.858,168.054Z" transform="translate(-331.583 -141.143)"/>
        <path id="Path_87" data-name="Path 87" d="M359.328,169.8l-2-2.921a.3.3,0,0,0-.408-.072l-2.914,2.013a.312.312,0,0,0-.083.418l1.83,2.882a.289.289,0,0,0,.4.092l3.086-1.96a.3.3,0,0,0,.143-.206.306.306,0,0,0-.06-.245Z" transform="translate(-333.102 -140.029)"/>
        <path id="Path_88" data-name="Path 88" d="M356.516,171.732l-2-2.921a.3.3,0,0,0-.408-.072l-2.92,2.013a.319.319,0,0,0-.083.418l1.836,2.882a.289.289,0,0,0,.4.092l3.08-1.96a.293.293,0,0,0,.151-.2A.3.3,0,0,0,356.516,171.732Z" transform="translate(-334.791 -138.789)"/>
        <path id="Path_89" data-name="Path 89" d="M353.79,173.629l-2-2.915a.293.293,0,0,0-.188-.126.287.287,0,0,0-.22.048l-2.92,2.019a.305.305,0,0,0-.077.412l1.83,2.882a.281.281,0,0,0,.181.136.275.275,0,0,0,.22-.044l3.08-1.961a.293.293,0,0,0,.151-.2A.3.3,0,0,0,353.79,173.629Z" transform="translate(-336.426 -137.575)"/>
        <path id="Path_90" data-name="Path 90" d="M352.929,178.208l-2-2.915a.289.289,0,0,0-.4-.072l-2.92,2.013a.294.294,0,0,0-.126.188.3.3,0,0,0,.043.224l1.83,2.888a.3.3,0,0,0,.4.091l3.086-1.96a.307.307,0,0,0,.144-.209A.313.313,0,0,0,352.929,178.208Z" transform="translate(-336.943 -134.64)"/>
        <path id="Path_91" data-name="Path 91" d="M350.2,180.1l-2-2.915a.287.287,0,0,0-.185-.125.281.281,0,0,0-.217.047l-2.92,2.019a.294.294,0,0,0-.126.188.3.3,0,0,0,.043.224l1.83,2.882a.289.289,0,0,0,.4.092l3.086-1.961a.3.3,0,0,0,.143-.206.306.306,0,0,0-.06-.245Z" transform="translate(-338.578 -133.433)"/>
        <path id="Path_92" data-name="Path 92" d="M354.459,168.756l-1.913-2.745a.389.389,0,0,0-.542-.1l-2.754,1.9a.4.4,0,0,0-.167.255.407.407,0,0,0,.059.3l1.721,2.712a.383.383,0,0,0,.242.178.375.375,0,0,0,.293-.054l2.914-1.876a.4.4,0,0,0,.2-.255A.414.414,0,0,0,354.459,168.756Z" transform="translate(-335.985 -140.609)"/>
        <path id="Path_93" data-name="Path 93" d="M351.721,170.647,349.84,167.9a.388.388,0,0,0-.25-.168.382.382,0,0,0-.292.063l-2.754,1.934a.392.392,0,0,0-.167.251.4.4,0,0,0,.058.3L348.157,173a.39.39,0,0,0,.536.124l2.914-1.876a.4.4,0,0,0,.191-.274.413.413,0,0,0-.077-.327Z" transform="translate(-337.609 -139.403)"/>
        <path id="Path_94" data-name="Path 94" d="M349,172.536l-1.881-2.751a.389.389,0,0,0-.542-.1l-2.754,1.9a.4.4,0,0,0-.167.255.407.407,0,0,0,.059.3l1.722,2.712a.383.383,0,0,0,.242.178.375.375,0,0,0,.293-.054l2.914-1.876a.4.4,0,0,0,.177-.259.407.407,0,0,0-.062-.31Z" transform="translate(-339.245 -138.194)"/>
        <path id="Path_95" data-name="Path 95" d="M346.342,174.521l-2-2.921a.289.289,0,0,0-.4-.072l-2.92,2.013a.312.312,0,0,0-.083.418l1.83,2.882a.3.3,0,0,0,.4.092l3.086-1.961a.287.287,0,0,0,.151-.2A.292.292,0,0,0,346.342,174.521Z" transform="translate(-340.895 -137.004)"/>
        <path id="Path_96" data-name="Path 96" d="M380.153,156.03l-1.728-2.516a.628.628,0,0,0-.867-.157l-6.746,4.842a.664.664,0,0,0-.166.876l1.626,2.575a.637.637,0,0,0,.407.277.625.625,0,0,0,.479-.1l6.848-4.908A.664.664,0,0,0,380.153,156.03Z" transform="translate(-323.099 -148.671)"/>
        <path id="Path_97" data-name="Path 97" d="M352.737,175.516l-2.117-3.065a.286.286,0,0,0-.189-.125.282.282,0,0,0-.219.053l-7.281,5.228a.3.3,0,0,0-.077.405l1.989,3.156a.294.294,0,0,0,.19.133.288.288,0,0,0,.225-.048l7.4-5.313A.312.312,0,0,0,352.737,175.516Z" transform="translate(-339.747 -136.463)"/>
        <path id="Path_98" data-name="Path 98" d="M370.484,161.169l-1.951-2.928a.289.289,0,0,0-.4-.078l-16.169,11.188a.305.305,0,0,0-.083.412l2,3.137a.293.293,0,0,0,.19.133.288.288,0,0,0,.225-.048l16.118-11.4a.3.3,0,0,0,.123-.193.307.307,0,0,0-.046-.225Z" transform="translate(-334.33 -145.557)"/>
      </g>
      <path id="Path_99" data-name="Path 99" d="M382.352,161.4l-1.607-2.353a.628.628,0,0,0-.867-.163l-2.372,1.647a.664.664,0,0,0-.179.882l1.473,2.32a.628.628,0,0,0,.861.2l2.512-1.621a.654.654,0,0,0,.273-.416.667.667,0,0,0-.095-.492Z" transform="translate(189.449 55.406)" fill="#464a5f"/>
      <path id="Path_100" data-name="Path 100" d="M379.667,163.244,378.06,160.9a.628.628,0,0,0-.861-.163l-2.378,1.64a.664.664,0,0,0-.178.882l1.473,2.32a.628.628,0,0,0,.861.2l2.512-1.614a.654.654,0,0,0,.277-.419A.667.667,0,0,0,379.667,163.244Z" transform="translate(187.837 56.593)" fill="#464a5f"/>
      <path id="Path_101" data-name="Path 101" d="M376.877,165.189l-1.607-2.346a.628.628,0,0,0-.867-.163l-2.372,1.647a.664.664,0,0,0-.179.882l1.473,2.32a.628.628,0,0,0,.861.19L376.7,166.1a.654.654,0,0,0,.277-.419A.667.667,0,0,0,376.877,165.189Z" transform="translate(186.163 57.837)" fill="#464a5f"/>
      <path id="Path_102" data-name="Path 102" d="M374.034,167.155l-1.607-2.353a.628.628,0,0,0-.861-.163l-2.378,1.647a.655.655,0,0,0-.27.422.667.667,0,0,0,.1.493l1.473,2.32a.628.628,0,0,0,.861.2l2.506-1.621a.654.654,0,0,0,.286-.432A.666.666,0,0,0,374.034,167.155Z" transform="translate(184.454 59.092)" fill="#464a5f"/>
      <path id="Path_103" data-name="Path 103" d="M371.193,169.117l-1.607-2.346a.628.628,0,0,0-.861-.163l-2.378,1.64a.664.664,0,0,0-.172.882l1.466,2.32a.628.628,0,0,0,.861.2l2.512-1.621a.654.654,0,0,0,.273-.416A.667.667,0,0,0,371.193,169.117Z" transform="translate(182.755 60.352)" fill="#464a5f"/>
      <path id="Path_104" data-name="Path 104" d="M368.605,171.429l-2-2.915a.287.287,0,0,0-.185-.125.281.281,0,0,0-.217.047l-2.92,2.019a.294.294,0,0,0-.126.188.3.3,0,0,0,.043.224l1.83,2.882a.289.289,0,0,0,.4.092l3.086-1.961a.3.3,0,0,0,.143-.206.306.306,0,0,0-.061-.245Z" transform="translate(181.002 61.556)" fill="#464a5f"/>
      <path id="Path_105" data-name="Path 105" d="M365.768,173.394l-2-2.915a.293.293,0,0,0-.188-.126.288.288,0,0,0-.22.048l-2.914,2.019a.294.294,0,0,0-.126.188.3.3,0,0,0,.043.224l1.83,2.888a.287.287,0,0,0,.183.129.281.281,0,0,0,.218-.044l3.086-1.961a.307.307,0,0,0,.14-.206A.313.313,0,0,0,365.768,173.394Z" transform="translate(179.299 62.813)" fill="#464a5f"/>
      <path id="Path_106" data-name="Path 106" d="M363.253,175.135l-2-2.921a.289.289,0,0,0-.4-.072l-2.92,1.987a.312.312,0,0,0-.083.418l1.83,2.882a.3.3,0,0,0,.4.091l3.086-1.96a.3.3,0,0,0,.13-.194A.306.306,0,0,0,363.253,175.135Z" transform="translate(177.791 63.928)" fill="#464a5f"/>
      <path id="Path_107" data-name="Path 107" d="M360.441,177.073l-2-2.9a.289.289,0,0,0-.4-.072l-2.92,2.013a.3.3,0,0,0-.127.191.307.307,0,0,0,.044.227l1.83,2.882a.3.3,0,0,0,.4.091l3.086-1.96a.3.3,0,0,0,.159-.217A.306.306,0,0,0,360.441,177.073Z" transform="translate(176.102 65.185)" fill="#464a5f"/>
      <path id="Path_108" data-name="Path 108" d="M357.715,178.968l-2-2.915a.287.287,0,0,0-.185-.125.281.281,0,0,0-.217.047l-2.92,2.019a.3.3,0,0,0-.126.188.3.3,0,0,0,.043.224l1.83,2.882a.287.287,0,0,0,.182.133.281.281,0,0,0,.22-.041l3.086-1.96a.3.3,0,0,0,.143-.206A.306.306,0,0,0,357.715,178.968Z" transform="translate(174.467 66.381)" fill="#464a5f"/>
      <path id="Path_109" data-name="Path 109" d="M354.989,180.857l-2-2.921a.289.289,0,0,0-.4-.072l-2.92,2.013a.312.312,0,0,0-.083.418l1.83,2.882a.3.3,0,0,0,.4.092l3.086-1.96a.3.3,0,0,0,.143-.206A.306.306,0,0,0,354.989,180.857Z" transform="translate(172.832 67.59)" fill="#464a5f"/>
      <path id="Path_110" data-name="Path 110" d="M352.264,182.742l-2-2.915a.286.286,0,0,0-.185-.125.282.282,0,0,0-.217.047l-2.92,2.019a.294.294,0,0,0-.126.188.3.3,0,0,0,.043.224l1.83,2.882a.287.287,0,0,0,.182.133.281.281,0,0,0,.22-.041l3.086-1.961a.3.3,0,0,0,.143-.206A.306.306,0,0,0,352.264,182.742Z" transform="translate(171.195 68.797)" fill="#464a5f"/>
      <path id="Path_111" data-name="Path 111" d="M380.553,158.815l-1.607-2.353a.628.628,0,0,0-.861-.163l-2.378,1.647a.664.664,0,0,0-.172.882l1.466,2.32a.628.628,0,0,0,.861.2l2.512-1.621a.654.654,0,0,0,.273-.416A.667.667,0,0,0,380.553,158.815Z" transform="translate(188.372 53.755)" fill="#464a5f"/>
      <path id="Path_112" data-name="Path 112" d="M376.629,153.131l-1.607-2.346a.627.627,0,0,0-.861-.163l-2.378,1.64a.664.664,0,0,0-.172.882l1.473,2.32a.628.628,0,0,0,.854.2l2.512-1.614a.655.655,0,0,0,.277-.419.667.667,0,0,0-.1-.5Z" transform="translate(186.017 50.12)" fill="#464a5f"/>
      <path id="Path_113" data-name="Path 113" d="M377.88,160.655l-1.607-2.359a.628.628,0,0,0-.861-.163l-2.378,1.64a.664.664,0,0,0-.172.882l1.473,2.32a.628.628,0,0,0,.854.2l2.512-1.614a.664.664,0,0,0,.178-.9Z" transform="translate(186.768 54.928)" fill="#464a5f"/>
      <path id="Path_114" data-name="Path 114" d="M375.066,162.59l-1.581-2.346a.628.628,0,0,0-.861-.163l-2.378,1.64a.664.664,0,0,0-.172.889l1.466,2.32a.628.628,0,0,0,.861.189l2.512-1.614a.655.655,0,0,0,.263-.425.666.666,0,0,0-.11-.49Z" transform="translate(185.093 56.175)" fill="#464a5f"/>
      <path id="Path_115" data-name="Path 115" d="M372.239,164.562l-1.607-2.353a.628.628,0,0,0-.867-.163l-2.372,1.647a.664.664,0,0,0-.179.882l1.473,2.32a.628.628,0,0,0,.861.2l2.512-1.621a.654.654,0,0,0,.273-.416.667.667,0,0,0-.095-.492Z" transform="translate(183.38 57.431)" fill="#464a5f"/>
      <path id="Path_116" data-name="Path 116" d="M374.019,155.076l-1.607-2.359a.628.628,0,0,0-.861-.163l-2.378,1.64a.664.664,0,0,0-.172.882l1.473,2.32a.628.628,0,0,0,.854.2l2.512-1.614A.664.664,0,0,0,374.019,155.076Z" transform="translate(184.451 51.357)" fill="#464a5f"/>
      <path id="Path_117" data-name="Path 117" d="M371.215,157.018l-1.607-2.353a.628.628,0,0,0-.861-.163l-2.378,1.647a.664.664,0,0,0-.179.882l1.473,2.32a.628.628,0,0,0,.861.2l2.512-1.621a.654.654,0,0,0,.273-.416A.667.667,0,0,0,371.215,157.018Z" transform="translate(182.766 52.604)" fill="#464a5f"/>
      <path id="Path_118" data-name="Path 118" d="M368.378,158.981l-1.607-2.346a.628.628,0,0,0-.867-.163l-2.372,1.64a.664.664,0,0,0-.179.882l1.473,2.326a.628.628,0,0,0,.861.2l2.506-1.621a.654.654,0,0,0,.28-.418A.667.667,0,0,0,368.378,158.981Z" transform="translate(181.063 53.863)" fill="#464a5f"/>
      <path id="Path_119" data-name="Path 119" d="M369.4,166.523l-1.607-2.346a.628.628,0,0,0-.861-.163l-2.378,1.627a.664.664,0,0,0-.172.882l1.473,2.32a.628.628,0,0,0,.854.2l2.512-1.621A.664.664,0,0,0,369.4,166.523Z" transform="translate(181.677 58.692)" fill="#464a5f"/>
      <path id="Path_120" data-name="Path 120" d="M366.561,168.488l-1.607-2.346a.628.628,0,0,0-.861-.163l-2.378,1.673a.664.664,0,0,0-.178.882l1.473,2.32a.628.628,0,0,0,.861.2l2.512-1.614a.654.654,0,0,0,.293-.433A.667.667,0,0,0,366.561,168.488Z" transform="translate(179.973 59.949)" fill="#464a5f"/>
      <path id="Path_121" data-name="Path 121" d="M363.961,170.8l-2-2.915a.287.287,0,0,0-.185-.125.282.282,0,0,0-.217.047l-2.895,2.019a.294.294,0,0,0-.126.188.3.3,0,0,0,.043.224l1.83,2.882a.288.288,0,0,0,.182.133.281.281,0,0,0,.22-.041l3.086-1.961a.309.309,0,0,0,.126-.212.312.312,0,0,0-.069-.239Z" transform="translate(178.23 61.153)" fill="#464a5f"/>
      <path id="Path_122" data-name="Path 122" d="M361.461,172.529l-2-2.921a.3.3,0,0,0-.408-.072l-2.92,2.013a.319.319,0,0,0-.083.418l1.836,2.882a.289.289,0,0,0,.4.092l3.079-1.96a.293.293,0,0,0,.151-.2.3.3,0,0,0-.061-.248Z" transform="translate(176.714 62.26)" fill="#464a5f"/>
      <path id="Path_123" data-name="Path 123" d="M358.643,174.489l-2-2.921a.289.289,0,0,0-.4-.072l-2.92,2.013a.312.312,0,0,0-.083.418l1.83,2.882a.3.3,0,0,0,.4.091l3.086-1.96a.286.286,0,0,0,.151-.2A.292.292,0,0,0,358.643,174.489Z" transform="translate(175.024 63.515)" fill="#464a5f"/>
      <path id="Path_124" data-name="Path 124" d="M355.914,176.374l-1.977-2.915a.287.287,0,0,0-.185-.125.281.281,0,0,0-.217.047l-2.92,2.019a.305.305,0,0,0-.083.412l1.83,2.882a.289.289,0,0,0,.4.092l3.086-1.96a.3.3,0,0,0,.136-.21.3.3,0,0,0-.073-.241Z" transform="translate(173.399 64.721)" fill="#464a5f"/>
      <path id="Path_125" data-name="Path 125" d="M373.206,159.9l-1.6-2.353a.628.628,0,0,0-.867-.163l-2.378,1.647a.664.664,0,0,0-.172.882l1.473,2.32a.628.628,0,0,0,.861.19l2.506-1.614a.654.654,0,0,0,.274-.416A.667.667,0,0,0,373.206,159.9Z" transform="translate(183.963 54.447)" fill="#464a5f"/>
      <path id="Path_126" data-name="Path 126" d="M370.369,161.863l-1.607-2.346a.628.628,0,0,0-.861-.17l-2.378,1.647a.664.664,0,0,0-.172.882l1.473,2.32a.628.628,0,0,0,.854.2l2.512-1.621a.654.654,0,0,0,.273-.416A.666.666,0,0,0,370.369,161.863Z" transform="translate(182.26 55.706)" fill="#464a5f"/>
      <path id="Path_127" data-name="Path 127" d="M367.521,163.824l-1.626-2.339a.628.628,0,0,0-.867-.163l-2.321,1.634a.664.664,0,0,0-.179.882l1.473,2.32a.628.628,0,0,0,.861.2l2.512-1.614a.656.656,0,0,0,.259-.426A.666.666,0,0,0,367.521,163.824Z" transform="translate(180.568 56.967)" fill="#464a5f"/>
      <path id="Path_128" data-name="Path 128" d="M364.69,165.79l-1.607-2.346a.628.628,0,0,0-.861-.163l-2.378,1.64a.664.664,0,0,0-.172.882l1.473,2.32a.628.628,0,0,0,.854.2l2.512-1.614a.654.654,0,0,0,.277-.419A.666.666,0,0,0,364.69,165.79Z" transform="translate(178.853 58.223)" fill="#464a5f"/>
      <path id="Path_129" data-name="Path 129" d="M362.107,168.1l-2-2.915a.293.293,0,0,0-.188-.126.287.287,0,0,0-.22.048l-2.92,2.019a.305.305,0,0,0-.083.412l1.83,2.888a.293.293,0,0,0,.187.13.287.287,0,0,0,.221-.045l3.08-1.96a.3.3,0,0,0,.147-.2.307.307,0,0,0-.058-.247Z" transform="translate(177.1 59.426)" fill="#464a5f"/>
      <path id="Path_130" data-name="Path 130" d="M359.584,169.843l-2-2.915a.286.286,0,0,0-.185-.125.282.282,0,0,0-.217.047l-2.9,2.013a.312.312,0,0,0-.083.418l1.83,2.882a.3.3,0,0,0,.4.091l3.086-1.96a.3.3,0,0,0,.133-.21A.306.306,0,0,0,359.584,169.843Z" transform="translate(175.601 60.541)" fill="#464a5f"/>
      <path id="Path_131" data-name="Path 131" d="M356.778,171.792l-2-2.921a.3.3,0,0,0-.408-.072l-2.914,2.013a.312.312,0,0,0-.083.418l1.83,2.882a.289.289,0,0,0,.4.091l3.086-1.96a.3.3,0,0,0,.143-.206.306.306,0,0,0-.06-.245Z" transform="translate(173.905 61.788)" fill="#464a5f"/>
      <path id="Path_132" data-name="Path 132" d="M354.053,173.677l-2-2.915a.293.293,0,0,0-.188-.126.288.288,0,0,0-.22.048l-2.914,2.019a.294.294,0,0,0-.126.188.3.3,0,0,0,.043.224l1.83,2.888a.287.287,0,0,0,.183.129.281.281,0,0,0,.218-.044l3.086-1.96a.307.307,0,0,0,.14-.206A.313.313,0,0,0,354.053,173.677Z" transform="translate(172.269 62.994)" fill="#464a5f"/>
      <path id="Path_133" data-name="Path 133" d="M353.2,178.263l-2-2.921a.3.3,0,0,0-.408-.072l-2.92,2.013a.312.312,0,0,0-.083.418l1.83,2.882a.3.3,0,0,0,.4.092l3.086-1.961a.293.293,0,0,0,.151-.2.3.3,0,0,0-.061-.247Z" transform="translate(171.753 65.93)" fill="#464a5f"/>
      <path id="Path_134" data-name="Path 134" d="M350.472,180.148l-2-2.915a.293.293,0,0,0-.188-.126.288.288,0,0,0-.22.048l-2.92,2.019a.305.305,0,0,0-.083.412l1.83,2.882a.294.294,0,0,0,.185.133.287.287,0,0,0,.223-.042l3.08-1.961a.294.294,0,0,0,.151-.2.3.3,0,0,0-.061-.247Z" transform="translate(170.118 67.136)" fill="#464a5f"/>
      <path id="Path_135" data-name="Path 135" d="M354.716,168.81l-1.881-2.751a.389.389,0,0,0-.542-.1l-2.774,1.9a.411.411,0,0,0-.108.555l1.721,2.719a.389.389,0,0,0,.542.118l2.907-1.876a.4.4,0,0,0,.188-.254.407.407,0,0,0-.054-.314Z" transform="translate(172.715 59.96)" fill="#464a5f"/>
      <path id="Path_136" data-name="Path 136" d="M351.983,170.695,350.1,167.95a.389.389,0,0,0-.25-.168.382.382,0,0,0-.292.063l-2.754,1.908a.4.4,0,0,0-.108.549l1.721,2.719a.4.4,0,0,0,.542.124l2.914-1.876a.413.413,0,0,0,.171-.264.42.42,0,0,0-.063-.311Z" transform="translate(171.087 61.167)" fill="#464a5f"/>
      <path id="Path_137" data-name="Path 137" d="M349.27,172.583l-1.913-2.751a.383.383,0,0,0-.536-.1l-2.761,1.9a.412.412,0,0,0-.108.555l1.721,2.719a.39.39,0,0,0,.542.118l2.914-1.876a.4.4,0,0,0,.192-.253.407.407,0,0,0-.051-.316Z" transform="translate(169.439 62.376)" fill="#464a5f"/>
      <path id="Path_138" data-name="Path 138" d="M346.61,174.573l-2-2.921a.3.3,0,0,0-.408-.072l-2.92,2.013a.312.312,0,0,0-.077.418l1.83,2.882a.289.289,0,0,0,.4.092l3.086-1.961a.3.3,0,0,0,.143-.206.306.306,0,0,0-.061-.245Z" transform="translate(167.802 63.568)" fill="#464a5f"/>
      <path id="Path_139" data-name="Path 139" d="M380.424,156.092l-1.7-2.522a.627.627,0,0,0-.867-.157l-6.784,4.842a.664.664,0,0,0-.166.876l1.632,2.575a.637.637,0,0,0,.407.277.625.625,0,0,0,.479-.1l6.841-4.908A.664.664,0,0,0,380.424,156.092Z" transform="translate(185.594 51.904)" fill="#464a5f"/>
      <path id="Path_140" data-name="Path 140" d="M353,175.564l-2.117-3.065a.287.287,0,0,0-.189-.125.282.282,0,0,0-.219.053l-7.281,5.228a.305.305,0,0,0-.077.412l2,3.15a.294.294,0,0,0,.19.133.288.288,0,0,0,.225-.048l7.4-5.313A.312.312,0,0,0,353,175.564Z" transform="translate(168.948 64.107)" fill="#464a5f"/>
      <path id="Path_141" data-name="Path 141" d="M370.734,161.211l-1.913-2.908a.3.3,0,0,0-.408-.085L352.25,169.393a.294.294,0,0,0-.126.188.3.3,0,0,0,.043.224l1.989,3.137a.293.293,0,0,0,.19.133.288.288,0,0,0,.225-.048l16.118-11.4A.306.306,0,0,0,370.734,161.211Z" transform="translate(174.378 55.019)" fill="#464a5f"/>
      <path id="Path_142" data-name="Path 142" d="M376.993,159.209l-8.595-12.8a1.57,1.57,0,0,0-2.206-.431l-23.674,16.292a1.644,1.644,0,0,0-.675,1.05,1.673,1.673,0,0,0,.248,1.231l8.76,13.168a1.592,1.592,0,0,0,1.025.691,1.563,1.563,0,0,0,1.2-.26l23.508-16.671a1.631,1.631,0,0,0,.664-1.047,1.659,1.659,0,0,0-.255-1.221Z" transform="translate(168.195 47.035)" opacity="0.1"/>
      <path id="Path_143" data-name="Path 143" d="M377.231,159.256l-8.595-12.8a1.576,1.576,0,0,0-2.206-.431l-23.642,16.3a1.636,1.636,0,0,0-.681,1.048,1.667,1.667,0,0,0,.248,1.233l8.735,13.155a1.592,1.592,0,0,0,1.025.691,1.563,1.563,0,0,0,1.2-.26l23.521-16.671a1.632,1.632,0,0,0,.656-1.05,1.659,1.659,0,0,0-.261-1.218Z" transform="translate(168.353 47.067)" fill="#939498"/>
      <path id="Path_144" data-name="Path 144" d="M426.128,169.032,407.893,162.8l-58.486,41.641,18.1,6.045a3.248,3.248,0,0,0,2.927-.444l55.859-39.811a.659.659,0,0,0,.307-.655A.648.648,0,0,0,426.128,169.032Z" transform="translate(172.751 57.981)" fill="#309317"/>
    </g>
  </g>
</svg>
