<svg xmlns="http://www.w3.org/2000/svg" width="96.727" height="79.098" viewBox="0 0 96.727 79.098">
  <path id="Icon_feather-twitter" data-name="Icon feather-twitter" d="M92.227,4.526a45.19,45.19,0,0,1-12.949,6.231A18.631,18.631,0,0,0,58.749,5.685a18.249,18.249,0,0,0-11.886,17.29v4.072A44.143,44.143,0,0,1,9.748,8.6s-16.5,36.652,20.62,52.942A48.448,48.448,0,0,1,1.5,69.686c37.116,20.362,82.479,0,82.479-46.833a18.105,18.105,0,0,0-.33-3.38A31.343,31.343,0,0,0,92.227,4.526Z" transform="translate(1.5 -1.464)" fill="none" stroke="#309317" stroke-linecap="round" stroke-linejoin="round" stroke-width="6"/>
</svg>
