<svg xmlns="http://www.w3.org/2000/svg" width="80.023" height="76.826" viewBox="0 0 80.023 76.826">
  <path id="Icon_awesome-instagram" data-name="Icon awesome-instagram" d="M40.015,20.953c-11.354,0-20.512,8.794-20.512,19.7s9.158,19.7,20.512,19.7,20.512-8.794,20.512-19.7S51.369,20.953,40.015,20.953Zm0,32.5c-7.337,0-13.336-5.743-13.336-12.806A13.091,13.091,0,0,1,40.015,27.845,13.091,13.091,0,0,1,53.351,40.651c0,7.063-6,12.806-13.336,12.806ZM66.151,20.148a4.788,4.788,0,1,1-4.784-4.594A4.681,4.681,0,0,1,66.151,20.148Zm13.586,4.663c-.3-6.154-1.767-11.606-6.463-16.1C68.6,4.222,62.92,2.816,56.511,2.508c-6.605-.36-26.4-.36-33.009,0C17.111,2.8,11.434,4.2,6.738,8.7S.6,18.639.276,24.793c-.375,6.343-.375,25.354,0,31.7.3,6.154,1.767,11.606,6.463,16.1s10.354,5.9,16.763,6.206c6.605.36,26.4.36,33.009,0C62.92,78.5,68.6,77.1,73.274,72.588c4.677-4.491,6.141-9.943,6.463-16.1.375-6.343.375-25.337,0-31.68ZM71.2,63.3A13.245,13.245,0,0,1,63.6,70.6c-5.266,2.006-17.763,1.543-23.583,1.543s-18.334.446-23.583-1.543a13.245,13.245,0,0,1-7.605-7.3C6.738,58.239,7.22,46.239,7.22,40.651S6.756,23.045,8.827,18a13.245,13.245,0,0,1,7.605-7.3C21.7,8.7,34.2,9.159,40.015,9.159S58.35,8.713,63.6,10.7A13.245,13.245,0,0,1,71.2,18c2.089,5.057,1.607,17.057,1.607,22.646S73.292,58.256,71.2,63.3Z" transform="translate(0.005 -2.238)" fill="#309317"/>
</svg>
