<svg xmlns="http://www.w3.org/2000/svg" width="83.895" height="79.076" viewBox="0 0 83.895 79.076">
  <g id="Icon_feather-linkedin" data-name="Icon feather-linkedin" transform="translate(3 3)">
    <path id="Path_154" data-name="Path 154" d="M38.368,12A23.368,23.368,0,0,1,61.737,35.368V62.632H46.158V35.368a7.789,7.789,0,0,0-15.579,0V62.632H15V35.368A23.368,23.368,0,0,1,38.368,12Z" transform="translate(16.158 10.444)" fill="none" stroke="#309317" stroke-linecap="round" stroke-linejoin="round" stroke-width="6"/>
    <path id="Path_155" data-name="Path 155" d="M3,13.5H18.579V60.237H3Z" transform="translate(-3 12.839)" fill="none" stroke="#309317" stroke-linecap="round" stroke-linejoin="round" stroke-width="6"/>
    <path id="Path_156" data-name="Path 156" d="M18.579,10.789A7.789,7.789,0,1,1,10.789,3,7.789,7.789,0,0,1,18.579,10.789Z" transform="translate(-3 -3)" fill="none" stroke="#309317" stroke-linecap="round" stroke-linejoin="round" stroke-width="6"/>
  </g>
</svg>
